<svg width="104" height="26" xmlns="http://www.w3.org/2000/svg" stroke-miterlimit="10" style="fill-rule:nonzero;clip-rule:evenodd;stroke-linecap:round;stroke-linejoin:round;" version="1.1" xml:space="preserve" clip-rule="evenodd">
 <!-- Created with Method Draw - http://github.com/duopixel/Method-Draw/ -->

 <g>
  <title>background</title>
  <rect x="-1" y="-1" width="106" height="28" id="canvas_background" fill="none"/>
 </g>
 <g>
  <title>Layer 1</title>
  <text font-style="normal" fill="#ff7f00" stroke-width="0" x="7.984121" y="27.630807" id="svg_1" font-size="20" font-family="'Courier New', Courier, monospace" text-anchor="start" xml:space="preserve" transform="rotate(-5, 20.3416, 12.6775) matrix(1.21118, 0, 0, 1.25689, -1.44044, -13.0017)" stroke="#000" font-weight="bold">你</text>
  <text stroke="#000" xml:space="preserve" text-anchor="start" font-family="'Courier New', Courier, monospace" font-size="20" id="svg_2" y="16.612438" x="32.125535" stroke-width="0" fill="#00bf00">聽</text>
  <text xml:space="preserve" text-anchor="start" font-family="'Courier New', Courier, monospace" font-size="20" id="svg_3" y="24.23728" x="49.625181" stroke-width="0" stroke="#000" fill="#00bf00">說</text>
  <text stroke="#000" xml:space="preserve" text-anchor="start" font-family="'Courier New', Courier, monospace" font-size="20" id="svg_4" y="20.987346" x="66.249845" stroke-width="0" fill="#00bf00">過</text>
  <path transform="rotate(15, 92.0791, 6.65659)" stroke="#000" id="svg_5" d="m91.448306,6.249301c0.038257,0.035894 0.11922,-0.032088 0.158553,-0.040488c-0.044271,-0.081588 0.122481,-0.479071 0.064929,-0.62342c-0.017708,-0.326353 -0.465945,-1.063027 -0.522396,-1.148512c0.021533,-0.057328 0.262855,-0.003982 0.255652,0.004243c-0.100704,0.115002 0.339826,0.775003 0.390702,1.156821c0.093744,-0.007355 0.216881,-0.057147 0.271529,0.025104c0.051032,-0.079053 0.444791,-0.683067 0.466317,-1.204996c0.003085,-0.074795 0.216796,-0.027459 0.176595,0.01813c-0.064441,0.324957 -0.518868,1.23733 -0.55437,1.270548c0.041317,0.28451 0.02459,0.30401 0.288497,0.525238c0.11877,-0.395364 0.371832,-0.730971 0.603613,-1.064996c0.261719,-0.375045 0.437364,-0.734335 0.725663,-1.124758c0.379521,-0.495951 0.864213,-0.948487 1.308132,-1.218628c0.308816,-0.187924 0.826232,-0.349027 0.905551,-0.359571c0.146944,-0.020224 0.279827,-0.016634 0.454003,0.020053c0.257001,0.054129 0.507942,0.08436 0.777768,0.263914c0.253714,0.230445 0.166009,0.519263 0.118702,0.789795c-0.390763,0.610898 -0.790989,1.342531 -0.917037,2.09103c-0.04238,0.277154 -0.118579,0.754744 -0.298417,1.054743c-0.28912,0.461458 -0.642961,0.444392 -0.975417,0.506947c0.202573,0.082226 0.422284,0.350709 0.619395,0.620503c0.307484,0.424354 0.457311,0.859534 0.377906,1.333303c-0.016904,0.099372 -0.310084,0.853097 -0.453482,1.089598c-0.544276,0.900549 -1.285264,1.511286 -1.882484,1.412165c-0.215068,-0.035693 -0.808297,-0.675847 -0.914954,-0.86474c-0.264771,-0.468914 -0.482251,-1.034514 -0.49119,-1.528322c-0.032913,-0.046618 -0.073164,-0.050063 -0.055416,-0.112431c-0.03298,0.142817 -0.137707,0.607915 -0.292751,0.901945c-0.224149,0.425082 -0.429331,-0.210352 -0.512383,-0.725664c-0.028471,-0.176647 -0.007576,-0.207229 -0.040782,-0.312857c-0.15702,0.08446 -0.074343,0.329356 -0.135965,0.527186c-0.052243,0.172274 -0.286209,0.698466 -0.35082,0.818423c-0.206532,0.38345 -0.670285,0.963701 -1.006612,1.102933c-0.312152,0.129226 -0.576714,0.111096 -0.827588,-0.071316c-0.323584,-0.235275 -0.779609,-0.781696 -1.060159,-1.225993c-0.355158,-0.549749 -0.665575,-1.375724 -0.370132,-1.957531c0.188572,-0.363015 0.543529,-0.904003 0.890389,-1.036939c-0.24485,-0.042511 -0.786576,-0.27128 -0.98804,-0.906699c-0.064664,-0.20146 -0.088651,-0.514694 -0.105099,-0.738808c-0.026761,-0.370004 -0.145846,-0.795107 -0.244701,-1.159432c-0.079468,-0.333081 -0.219923,-0.759499 -0.366917,-1.12391c-0.154048,-0.38241 -0.280344,-1.014742 -0.012254,-1.326118c0.093649,-0.108786 0.383623,-0.235667 0.444224,-0.244715c0.211838,-0.032068 0.500448,0.115408 0.714694,0.203885c0.140363,0.058447 0.756241,0.370386 0.926564,0.542143c1.122846,1.132305 1.921273,2.542742 2.439989,3.842195z" stroke-width="0" fill="#ff7f00"/>
  <path id="svg_7" d="m73.546901,-6.785015c-0.069399,-0.014127 -0.12179,-0.082543 -0.104414,-0.153676c0.024575,-0.099797 0.117681,-0.168832 0.21086,-0.201641c0.062067,-0.020612 0.1325,-0.017496 0.190779,0.013152c0.005204,-0.381184 0.002232,-0.762465 0.003023,-1.143692c0.021036,-0.000005 0.048031,-0.006796 0.042315,0.023668c0.002935,0.068458 0.036579,0.131127 0.088282,0.175287c0.115345,0.107462 0.245095,0.224151 0.271592,0.387932c0.007522,0.069096 -0.00054,0.138732 -0.01589,0.206207c0.045458,0.084842 0.042719,0.187633 0.024261,0.279652c-0.011969,0.04859 -0.031492,0.095398 -0.056309,0.138743c-0.058597,0.027277 0.006945,-0.044584 0.006123,-0.070471c0.031695,-0.07777 0.035331,-0.164399 0.020915,-0.246319c-0.031404,-0.119838 -0.150129,-0.178391 -0.245603,-0.241046c-0.034545,-0.013519 -0.108386,-0.095053 -0.093744,-0.015158c-0.0032,0.216571 -0.002654,0.433173 -0.003656,0.649761c-0.040076,0.100414 -0.132013,0.177048 -0.238798,0.196265c-0.032714,0.005653 -0.066975,0.007721 -0.099737,0.001337l0,0zm0.665818,-0.818864c0.000952,-0.123251 -0.090853,-0.222973 -0.180811,-0.296063c-0.045014,-0.033937 -0.092695,-0.06989 -0.143311,-0.091854c0.003113,0.070875 0.035545,0.139932 0.074365,0.198788c0.073157,0.098021 0.183603,0.163586 0.244887,0.271511c0.007349,-0.026796 0.005132,-0.054919 0.00487,-0.082382z" stroke-width="0" stroke="#000" fill="#ff7f00"/>
 </g>
</svg>