<svg width="172.291" height="43.4238" xmlns="http://www.w3.org/2000/svg" stroke="null" clip-rule="evenodd" xml:space="preserve" version="1.1" style="fill-rule: nonzero; clip-rule: evenodd; stroke-linecap: round; stroke-linejoin: round; vector-effect: non-scaling-stroke;" stroke-miterlimit="10">
 <defs stroke="null">
  <clipPath stroke="null" style="vector-effect: non-scaling-stroke;" id="TextBounds">
   <rect stroke="null" style="vector-effect: non-scaling-stroke;" id="svg_1" y="1.00126" x="2.86358" width="166.121" height="41.327"/>
  </clipPath>
 </defs>
 <g stroke="null">
  <title stroke="null" style="vector-effect: non-scaling-stroke;">background</title>
  <rect stroke="null" fill="none" id="canvas_background" height="208" width="318" y="-1" x="-1"/>
 </g>
 <g stroke="null">
  <title stroke="null">Layer 1</title>
  <g stroke="null" style="vector-effect: non-scaling-stroke;" id="图层-1">
   <g id="svg_2" fill="#4f4f4f">
    <path stroke="null" id="svg_7" fill-rule="evenodd" d="m109.917998,26.8626c0,0.8203 -0.202,1.708 -0.606,2.6631c-0.404,0.9551 -1.04,1.8926 -1.907,2.8125c-0.868,0.9199 -1.975,1.667 -3.323,2.2412c-1.3473,0.5742 -2.9176,0.8613 -4.7106,0.8613c-1.3594,0 -2.5957,-0.1289 -3.709,-0.3867c-1.1133,-0.2578 -2.124,-0.6592 -3.0322,-1.2041c-0.9082,-0.5449 -1.7432,-1.2627 -2.5049,-2.1533c-0.6797,-0.8086 -1.2598,-1.7139 -1.7402,-2.7158c-0.4805,-1.002 -0.8409,-2.0713 -1.0811,-3.2081c-0.2402,-1.1367 -0.3603,-2.3437 -0.3603,-3.621c0,-2.0743 0.3017,-3.9317 0.9052,-5.5723c0.6035,-1.6406 1.4678,-3.044 2.5928,-4.21c1.125,-1.166 2.4434,-2.0537 3.9551,-2.66306c1.5117,-0.60937 3.123,-0.91406 4.834,-0.91406c2.0859,0 3.9433,0.41601 5.5722,1.24802c1.629,0.8321 2.877,1.8604 3.744,3.085c0.867,1.2246 1.301,2.3818 1.301,3.4717c0,0.5976 -0.211,1.125 -0.633,1.582c-0.422,0.457 -0.932,0.6855 -1.529,0.6855c-0.668,0 -1.169,-0.1582 -1.503,-0.4746c-0.334,-0.3164 -0.706,-0.8613 -1.116,-1.6347c-0.68,-1.2774 -1.48,-2.2325 -2.3997,-2.8653c-0.9199,-0.6328 -2.0537,-0.9492 -3.4014,-0.9492c-2.1445,0 -3.8525,0.8145 -5.124,2.4434c-1.2715,1.6289 -1.9072,3.9433 -1.9072,6.9433c0,2.0039 0.2812,3.6709 0.8437,5.001c0.5625,1.3301 1.3594,2.3233 2.3906,2.9795c1.0313,0.6563 2.2383,0.9844 3.6211,0.9844c1.5,0 2.7686,-0.3721 3.8057,-1.1162c1.0372,-0.7442 1.8192,-1.8369 2.3462,-3.2784c0.223,-0.6796 0.499,-1.2334 0.827,-1.6611c0.328,-0.4277 0.855,-0.6416 1.582,-0.6416c0.621,0 1.154,0.2168 1.599,0.6504c0.446,0.4336 0.668,0.9727 0.668,1.6172z" clip-path="url(#TextBounds)"/>
    <path stroke="null" id="svg_8" fill-rule="evenodd" d="m118.970998,11.7102l0,7.1192c0.609,-0.7031 1.204,-1.2598 1.784,-1.6699c0.58,-0.4102 1.222,-0.7178 1.925,-0.9229c0.703,-0.2051 1.459,-0.3076 2.268,-0.3076c1.218,0 2.299,0.2578 3.243,0.7734c0.943,0.5157 1.684,1.2657 2.223,2.25c0.34,0.5743 0.569,1.2159 0.686,1.9248c0.117,0.709 0.176,1.5264 0.176,2.4522l0,9.1933c0,0.961 -0.22,1.6875 -0.659,2.1797c-0.44,0.4922 -1.023,0.7383 -1.75,0.7383c-1.582,0 -2.373,-0.9726 -2.373,-2.918l0,-8.1035c0,-1.5351 -0.228,-2.7158 -0.685,-3.542c-0.457,-0.8261 -1.324,-1.2392 -2.602,-1.2392c-0.855,0 -1.626,0.2431 -2.311,0.7295c-0.686,0.4863 -1.198,1.1513 -1.538,1.9951c-0.258,0.7148 -0.387,1.9863 -0.387,3.8144l0,6.3457c0,0.9493 -0.214,1.6729 -0.642,2.1709c-0.427,0.4981 -1.022,0.7471 -1.784,0.7471c-1.582,0 -2.373,-0.9726 -2.373,-2.918l0,-20.8125c0,-0.9726 0.208,-1.7021 0.624,-2.18843c0.416,-0.48633 0.999,-0.72949 1.749,-0.72949c0.762,0 1.357,0.24609 1.784,0.73828c0.428,0.49214 0.642,1.21874 0.642,2.17964z" clip-path="url(#TextBounds)"/>
    <path stroke="null" id="svg_9" fill-rule="evenodd" d="m148.150998,32.7337c-1.16,0.9023 -2.283,1.5791 -3.367,2.0303c-1.084,0.4511 -2.299,0.6767 -3.647,0.6767c-1.23,0 -2.312,-0.2431 -3.243,-0.7295c-0.932,-0.4863 -1.65,-1.1455 -2.153,-1.9775c-0.504,-0.832 -0.756,-1.7344 -0.756,-2.707c0,-1.3125 0.416,-2.4317 1.248,-3.3575c0.832,-0.9258 1.974,-1.5468 3.427,-1.8633c0.305,-0.0703 1.061,-0.2285 2.268,-0.4746c1.207,-0.2461 2.241,-0.4716 3.103,-0.6767c0.861,-0.2051 1.795,-0.4541 2.803,-0.7471c-0.058,-1.2656 -0.313,-2.1943 -0.764,-2.7861c-0.452,-0.5918 -1.386,-0.8877 -2.804,-0.8877c-1.219,0 -2.136,0.1699 -2.751,0.5097c-0.615,0.3399 -1.143,0.8497 -1.582,1.5293c-0.44,0.6797 -0.75,1.128 -0.932,1.3448c-0.181,0.2168 -0.571,0.3252 -1.169,0.3252c-0.539,0 -1.005,-0.1729 -1.397,-0.5186c-0.393,-0.3457 -0.589,-0.7881 -0.589,-1.3271c0,-0.8438 0.299,-1.6641 0.896,-2.461c0.598,-0.7968 1.53,-1.4531 2.795,-1.9687c1.266,-0.5156 2.842,-0.7735 4.729,-0.7735c2.109,0 3.767,0.2491 4.975,0.7471c1.207,0.4981 2.059,1.2861 2.557,2.3643c0.498,1.0781 0.747,2.5078 0.747,4.289c0,1.125 -0.003,2.0801 -0.009,2.8653c-0.005,0.7851 -0.014,1.6582 -0.026,2.6191c0,0.9023 0.149,1.8428 0.448,2.8213c0.299,0.9785 0.449,1.6084 0.449,1.8896c0,0.4922 -0.232,0.9405 -0.695,1.3448c-0.463,0.4043 -0.987,0.6064 -1.573,0.6064c-0.492,0 -0.979,-0.2314 -1.459,-0.6943c-0.48,-0.4629 -0.99,-1.1338 -1.529,-2.0127zm-0.317,-6.9434c-0.703,0.2578 -1.725,0.5303 -3.067,0.8174c-1.342,0.2871 -2.271,0.4981 -2.786,0.6328c-0.516,0.1348 -1.008,0.3985 -1.477,0.791c-0.469,0.3926 -0.703,0.9405 -0.703,1.6436c0,0.7266 0.275,1.3447 0.826,1.8545c0.551,0.5097 1.272,0.7646 2.162,0.7646c0.95,0 1.826,-0.208 2.628,-0.624c0.803,-0.416 1.392,-0.9521 1.767,-1.6084c0.433,-0.7266 0.65,-1.9219 0.65,-3.5859l0,-0.6856z" clip-path="url(#TextBounds)"/>
    <path stroke="null" id="svg_10" fill-rule="evenodd" d="m156.781998,16.3509l0.527,0l0,-2.8828c0,-0.7735 0.02,-1.3799 0.061,-1.8194c0.041,-0.4394 0.156,-0.8174 0.343,-1.1338c0.188,-0.3281 0.457,-0.59469 0.809,-0.79977c0.351,-0.20508 0.744,-0.30762 1.178,-0.30762c0.609,0 1.16,0.22852 1.652,0.68559c0.328,0.3046 0.536,0.6767 0.624,1.1162c0.088,0.4394 0.132,1.0634 0.132,1.872l0,3.2696l1.758,0c0.679,0 1.198,0.1611 1.555,0.4834c0.358,0.3222 0.536,0.7353 0.536,1.2392c0,0.6446 -0.255,1.0957 -0.764,1.3535c-0.51,0.2579 -1.24,0.3868 -2.189,0.3868l-0.896,0l0,8.8242c0,0.75 0.026,1.3271 0.079,1.7314c0.053,0.4043 0.193,0.7324 0.422,0.9844c0.228,0.252 0.6,0.3779 1.116,0.3779c0.281,0 0.662,-0.0498 1.142,-0.1494c0.481,-0.0996 0.856,-0.1494 1.125,-0.1494c0.387,0 0.736,0.1553 1.046,0.4658c0.311,0.3106 0.466,0.6944 0.466,1.1514c0,0.7734 -0.422,1.3652 -1.265,1.7754c-0.844,0.4101 -2.057,0.6152 -3.639,0.6152c-1.5,0 -2.637,-0.2519 -3.41,-0.7558c-0.774,-0.504 -1.281,-1.2012 -1.521,-2.0918c-0.24,-0.8907 -0.36,-2.0801 -0.36,-3.5684l0,-9.2109l-0.633,0c-0.691,0 -1.219,-0.1641 -1.582,-0.4922c-0.363,-0.3282 -0.545,-0.7442 -0.545,-1.2481c0,-0.5039 0.191,-0.917 0.571,-1.2392c0.381,-0.3223 0.935,-0.4834 1.662,-0.4834z" clip-path="url(#TextBounds)"/>
    <text stroke="null" transform="matrix(1.145, 0, 0, 1.06876, 3.65402, 0.0541609)" font-weight="bold" xml:space="preserve" text-anchor="start" font-family="'Times New Roman', Times, serif" font-size="36" id="svg_16" y="32.026141" x="-0.700422" stroke-width="0" fill="#894F3F">ntsg.</text>
   </g>
  </g>
 </g>
</svg>